<?xml version="1.0" encoding="UTF-8"?>
<svg version="1.1" viewBox="0 0 1423 1417" width="1423" height="1417" xmlns="http://www.w3.org/2000/svg">
<path transform="translate(0)" d="m0 0h1423v1417h-1423z" fill="#16131C"/>
<path transform="translate(689,51)" d="m0 0 7 1 5 4 7 8 6 5 7 8 10 10 8 7 5 5 5 6 5 5 5 4 10 10 5 6 5 5 5 4 7 8 5 4 7 8 5 4 7 8 14 14 5 4 5 5 4 5 5 5 6 5 83 83v2l7-2 18-2h28l20 3 19 5 17 7 1 3 6 1 9 5 7 5 1 2 7 4 2 3-1 9-7 15-15 29-10 16 1 5 33 33 5 4 4 5 42 42 5 4v2l4 2 52 52 1 7-2 5-5 5-5 4-4 5-10 10-12 11-75 75-4 5-5 5-7 5-13 24-14 22-13 18-7 9-6 7-7 8-10 9-14 10-10 6-18 7-12 4-9 10-100 100h-2l-2 4-126 126-8 5-5-1-7-6-234-234-2-1-14-2-24-6-25-9-27-13-15-10-11-9-10-9-9-11-11-17-6-17-2-9v-7l5-13 4-9-1-5-14-14-7-8-33-33-8-7-5-5-5-6-5-4-10-10-4-5-5-5-6-5-5-5-1-9 7-8 13-13 4-2 2-4 37-37 5-4 7-8 6-5 5-5 4-5 23-23 5-4 7-8 7-6 7-8 5-4 5-5 5-6 5-5 5-2 2-4 10-19 10-17 12-19 5-7h2l2-5 12-14 17-17 10-7 14-9 12-6 22-8 9-10 8-7 82-82h2l2-4 31-31 5-4 7-8 5-4 4-5 41-41z" fill="#D8527A"/>
<path transform="translate(689,75)" d="m0 0h5l14 14 7 8 12 11 190 190v2l-25 11-17 10-12 9-13 11-15 15-7 9-12 15-9 13-11 16-7 11-11 18-9 16-10 18-8 17-11 23-3 11-7 20-7 24-3 16-4 23-1 13v31l2 16 6 31 9 24 8 16 12 17 18 18 16 11 17 9 9 4 19 6 21 5 21 2 36 1-1 4-21 21h-2l-2 4-5 4-7 8-5 4-10 10-12 13-70 70-8 7-5 5-5 6-5 5-10 9-44 44-3 4-5-1-198-198-8-7-4-5-3-2v-2l44-2 20-4 18-6 15-8 14-12 10-10h2l2-5 9-10 5-9 10-16 11-17 8-13 6-10 12-24 7-16 6-20 3-14v-26l-4-20-8-20-7-12-10-13-9-10-9-8-15-11-18-10-21-10-27-11-48-18-12-5-16-8-17-9-15-10-13-11-12-12-6-9-4-7 5-4 13-4 21-4 15-2h27l28 4 23 6 15 6 11 6 10 7 10 9 9 10 5 9v2h5l10-11 4-6 3-7 5-7 4-4 13-22 7-12 8-16 8-17 3-8-1-5-8-14-17-17-13-8-16-8-24-8-16-3-22-2h-32l1-4 92-92 12-11 61-61z" fill="#16131C"/>
<path transform="translate(433,280)" d="m0 0 2 1-10 8-17 17-6 7-3 7-8 10-6 10-8 13-6 11-9 19-4 1-4 12-2 3h-2l-1 8-3 2-1 5v7l3-4 3-5 9-9 4-7 9-5 10-7 16-8 7-3 30-8 21-3h35l27 4 22 6 18 8 10 6 9 3 8 6 5 6v2h2v2h2l3 5 1 5 2 3v3l4-2 7-8 6-8v3l-6 8-8 9-5-1-7-12-12-13-10-8-16-9-15-6-14-4-21-4-16-2h-27l-27 4-19 5-6 3-1 2 7 11 11 12 7 7 13 10 15 9 18 10 31 13 18 7 16 6 21 8 25 11 25 13 9 7 14 11 10 10 12 16 5 9 5 10 6 16 3 17v26l-6 25-4 12-7 15-8 16-6 11-8 13-24 38-6 10-9 10-2 4-8 7-8 8-13 10-3-1 11-8 9-11 4-6 7-13 3-9 5-16 2-17 1-18 1-4h-6l-8 2-16 2h-51l-23-3-23-5-23-7-24-10-18-10-9-4-1-2-4-2v-2l-4-1-4-3-1-3-8-7-5-6-5-5-5-7-3-7-5-11v-3h-2l-2-6-1-8-5 2-6 8-8 10-4 9-8 13-6 10-5 9-5 7-5 9-4 10-7 15-1 4 1 13 7 19 4 6 4 7 8 10 9 10 4 3v2l4 2 10 7 14 9 6 3v2l9 3 11 4v2l4 2-5-1-18-8-15-8-12-8-11-9-10-9-9-11-11-17-6-17-2-9v-7l5-13 4-9-1-5-14-14-7-8-33-33-8-7-5-5-5-6-5-4-10-10-4-5-5-5-6-5-5-5-1-9 7-8 13-13 4-2 2-4 37-37 5-4 7-8 6-5 5-5 4-5 23-23 5-4 7-8 7-6 7-8 5-4 5-5 5-6 5-5 5-2 2-4 10-19 10-17 12-19 5-7h2l2-5 12-14 17-17z" fill="#BE437C"/>
<path transform="translate(905,407)" d="m0 0h13l17 2 14 3 16 5 16 7 13 7 10 7 6 4 5-2 7-7 7-11 5-6 7 6 6 5 4 5 24 24 8 7 8 9 6 5 7 8 59 59 5 4v6l-9 10-8 7-40 40-4 5-5 5-9 8-6 7h-2l3-11 2-5 2-15v-14l-2-4-4 1-11 13-7 11-8 13-13 22-14 26-6 10-6 4-16 4-14 3-14 1h-19l-21-1-29-5-24-7-20-9-12-6-16-12-12-11-9-10-11-18-8-17-7-21-5-24-2-23v-20l1-18 4-24 3-14 5-5 10-9 15-10 19-10 19-7 17-4 12-2z" fill="#16131C"/>
<path transform="translate(357,584)" d="m0 0 3 1 2 14h2l6 14 5 10 5 7 13 13 3 2v3l8 4 1 2 4 2v2l8 2 13 8 15 7 21 8 25 7 20 4 18 2h51l22-3 6-1 2 1-1 22-3 21-6 20-5 8-3 6-7 10-8 9-8 6h-2v2l-12 6-18 6-17 3-44 2h-3v-2l-10-1h-16l-2-1-14-2-24-6-17-6v-2l-4-1v-2l-11-3-9-4v-2l-4-1-12-7-11-8-7-5-12-12-10-13-4-7-5-8-6-17-1-13 4-10 7-15 3-8 6-9 5-8 4-7 11-19 2-2 3-8 16-20z" fill="#ED9250"/>
<path transform="translate(332,432)" d="m0 0h2l-1 9-1 3v24l5 18 7 14 11 13 11 11 8 6 14 10 9 5 10 6 20 9 25 10 20 7 30 12 23 10 20 11 15 10 16 14 7 8 9 11 9 16 6 14v6l-9 4-21 3h-44l-23-3-25-5-26-8-26-11-14-8-11-7-10-8-12-11-9-12-8-13-7-17-2-9-6 1-8 10-10 14-10 15-6 11-7 11-3 2-8-7-86-86-1-6z" fill="#16131C"/>
<path transform="translate(1042,401)" d="m0 0 5 1 33 33 5 4 4 5 42 42 5 4v2l4 2 52 52 1 7-2 5-5 5-5 4-4 5-10 10-12 11-75 75-4 5-5 5-7 5-13 24-14 22-13 18-7 9-6 7-7 8-10 9-14 10-10 6-18 7-12 4-9 10-100 100h-2l-2 4-126 126-8 5-5-1-7-6-231-231-1-3 1-1h13l10 2v2l4 1 5 4 7 8 8 7 4 5 8 7 181 181 5-1 7-8 59-59h2l2-4 5-5 12-11 69-69 5-6h2l2-4 5-5 6-5 7-8 6-5 24-24 1-3h-36l-21-2-25-6-11-4 3-1 11 2 9 2 18 2 3-1 2-4v-6l4-8 2-6h2l2-5 11-11 8-16 3-5 3-8 8-14 8-7 4-8 10-4v-2l-14-5-16-3-9-4-6-2-1-3-5-1-12-6 2-1 20 9 27 7 24 4 21 1h19l14-1 24-5 9-4 4-4 15-28 17-29 9-14 7-10 9-11 2-2 4 1 2 4v14l-2 15-6 16 6-5 7-8 5-5 6-5 7-8 51-51v-6l-12-11-58-58-4-5-8-7-32-32v-2l-4-2-14-14v-6l1-2 3-1z" fill="#9C2F79"/>
<path transform="translate(517,248)" d="m0 0h38l21 2 18 4 17 5 11 5v2l5 1 7 2 11 8 16 16 9 16-1 6-6 14-8 16-13 24-8 13-6 9-4 4-11 16-9 10h-3l-4-9-2-7h-2v-2h-2l-4-6-4-4-5-3-9-3-14-8-14-6-22-6-27-4h-35l-25 4-26 7-7 3-16 8-10 7-9 5-5 8-9 9-4 8-2-1v-7l2-6 3-1 1-8h2l3-9 3-7h4l1-5 11-21 9-16 6-9 8-11 3-4 2-5 14-15 12-12 10-7 9-3 1-4 19-9 14-5 10-3 3-3 20-2z" fill="#ED9250"/>
<path transform="translate(490,448)" d="m0 0 7 1 4 3 10 2 6 3 14 4 7 1 12 3 13 5 3 5 2 2 9 3 15 6 13 7 21 14 4 1 3 3 8 7 2 4 6 7 7 11 1 7h-2v2l-5 5-7 6-2 3h-2l-1 3-5 5-8 10-6 7-4 11-6 6h-2l-2 5-1 2h-3v2l-4 2-1 5v9l-5 4-6-2-5-5-20-14-28-15-14-7-5-2-6-3-24-8-7-3-12-4-13-5-17-6-10-4-11-5-16-8-7-5-5-3-9-6v-2l5 1 18 11 23 5 5 4h6l1 1 3-2-6-2 1-4 5-8h2l2-4h2v-2l5-4 1-2h-2l2-4 5-5 4-7 8-7 6-4 4-9 5-4 5-7 4-2 3-8v-12l-3-1z" fill="#D9527A"/>
<path transform="translate(956,293)" d="m0 0h48l15 2 18 6 10 5v2l6 1 9 5 7 5 1 2 7 4 2 3-1 9-7 15-15 29-10 16-1 4-3 1-3 7h-3v6l-6 7-8 12-8 8-4 1-3-2-1-3-11-7-14-8-15-6v-2l-16-3-6-2v-2l-5-1-14-2-28-1-12 1-1-3 10-6 7-3 3-5 1-7 1-35 3-4 3-10 3-16-1-6h-6l-1 1h-6l1-3 11-5 19-3 3-3z" fill="#ED9250"/>
<path transform="translate(428,668)" d="m0 0 6 2 21 9 15 5 21 6 20 4 18 2h51l22-3 6-1 2 1-1 22-3 21-6 20-5 8-3 6-7 10-8 9-8 6h-2v2l-12 6-18 6h-8l3-2h7v-3l-14 1-20 2h-21l-13-1-9-4-12-2-1-2 1-7 1-1v-95l1-11h2l-3-3v-2l-6-1-16-8z" fill="#E56360"/>
<path transform="translate(920,808)" d="m0 0h18l-6 8-101 101h-2l-2 4-126 126-8 5-5-1-7-6-231-231-1-3 1-1h13l10 2v2l4 1 5 4 7 8 8 7 4 5 8 7 181 181 5-1 7-8 59-59h2l2-4 5-5 12-11 69-69 5-6h2l2-4 5-5 6-5 7-8 6-5 24-24 1-3z" fill="#4C68FD"/>
<path transform="translate(556,473)" d="m0 0h5l2 2 13 4 11 5 17 8 11 8 10 7v2l5 2 1 4v1l5 1 2 4 4 3-1 4h-4l-2-5h-5l-6 8-4 5h-2l-3 14-14 16-6 8-4 6-5 5-7 9-4 11-6 3-4 4-13-5-18-10-42-21-7-8 1-5 1-1h5l1-3 1-16 4-6 5-5 10-3 4-5 4-10 6-8 16-12 4-4 4-7 4-1v-8z" fill="#F0617D"/>
<path transform="translate(689,51)" d="m0 0 7 1 5 4 7 8 6 5 7 8 10 10 8 7 5 5 5 6 5 5 5 4 10 10 5 6 5 5 5 4 7 8 5 4 7 8 5 4 7 8 14 14 5 4 5 5 4 5 5 5 6 5 83 83-3 1-13 5-3-1-1 2-198-198-8-7-12-13-5-5h-5l-9 10-68 68-11 10-4 5-8 7-4 5-8 7-26 26-4 5-8 7-18 18-1 3 13-1h19l22 2 19 4 21 7 16 8-3 1-5-2v-2l-5-1-9-4-21-6-18-3-14-1h-38l-10 2-15 1-1 3-19 6-18 8-6 3-1 3-5 3-7 2 5-5 11-7 12-6 22-8 9-10 8-7 82-82h2l2-4 31-31 5-4 7-8 5-4 4-5 41-41z" fill="#A225E3"/>
<path transform="translate(816,641)" d="m0 0 3 1 2 5 4 2 11 10 12 8 10 6 17 8 9 4 6 3v2h-2v2l-8 6-6 8-3 8-1 2h-2l-2 5-7 12-4 6-6 11-6 9-9 15-4 6-3 11-2 2-4 1h-9l-19-9-11-7-11-9-11-10-7-9 1-5 8-2 7-18 2-2 3-7 7-11 10-11 4-5 2-6 6-9 7-8 6-5 2-3-1-10-2-2z" fill="#F0617D"/>
<path transform="translate(962,290)" d="m0 0h28l20 3 5 1v1l-11-1h-48l-21 4-3 3-19 3-8 4h-3v2h5l1-1h6l2 4-2 15-3 11-3 6-1 1-1 35-2 9-5 5-10 5-2 2h-3l1 2 17-1 23 1 14 2 5 2v2l10 2 12 3v2l10 3 16 8 15 10v2l-4-2-14-9-19-9-13-5-16-4-11-2-12-1h-13l-18 1-21 4-17 5-18 8-11 6-16 11-2 2-5 2-5 3-3 3-7 9-8 10-4 2-2 4-9 11-4 8-3 3-3 5h-2l1-6 14-28 3-5 4-8 8-15 15-25 6-11 5-10 11-15 8-11 11-13 7-8 14-14 10-8 11-8 21-12 21-9 1-2 9-2 8-3 6 1 12-2z" fill="#E56260"/>
<path transform="translate(517,248)" d="m0 0h38l21 2 11 2v1l-13-1-25-2h-25v2l-18 2-3 3 8 1 1 4-7 4-2 6-7 10-4 10-3 9-5 10-2 1-4 8-5 5-4 5-3 9 1 9-1 5 4 4v2l20 1 27 4 24 7-4 1-18-5-27-4h-35l-25 4-26 7-7 3-16 8-10 7-9 5-5 8-9 9-4 8-2-1v-7l2-6 3-1 1-8h2l3-9 3-7h4l1-5 11-21 9-16 6-9 8-11 3-4 2-5 14-15 12-12 10-7 9-3 1-4 19-9 14-5 10-3 3-3 20-2z" fill="#E56260"/>
<path transform="translate(428,668)" d="m0 0 6 2 21 9 15 5 21 6 20 4 18 2h51l22-3 6-1 2 1-1 22-3 21-6 20-5 8-3 6-7 10-8 9-8 6h-2v2l-12 6-18 6h-8l3-2 9-2 14-6h-7l-7 2h-14l-2-7-1-47v-10l1-2v-7l-2-4v-8l-2-7 1-6 8-2-4-2-19-2-19-5-12-3-8-3-9-2-8-4-12-5-10-5z" fill="#DD436B"/>
<path transform="translate(623,270)" d="m0 0 9 2 10 7 2 2 5 2 11 11 3 5 1 5 4 4v5l-5 7-5 13v6l-10 19-11 19-9 14-4 4-11 16-9 8h-2l-3-10-4-6-3-7-3-3-3-5-8-6-11-9-2-3 1-3 12-4v-8l5-10 3-7 3-4 3-9 3-6 8-11 2-5 12-12 5-10z" fill="#F0A448"/>
<path transform="translate(655,534)" d="m0 0 5 5 5 9 5 10 6 16 3 17v26l-6 25-4 12-7 15-8 16-6 11-8 13-24 38-6 10-9 10-2 4-8 7-8 8-13 10-3-1 11-8 9-11 4-6 7-13 3-9 5-16 2-17 1-18 1-4h-6l-8 2-16 2h-51l-23-3-23-5-23-7-24-10-18-10-9-4-1-2-4-2v-2l-4-1-4-3-1-3-8-7-5-6-5-5-5-7-3-7-1-5 4 5 6 10 10 13 13 12 13 9 21 12 19 8 18 6 21 6 31 5 9 1h44l21-3 8-3v-6l-9-20-7-11-8-10-7-8-8-7-7-6-17-11-12-7-15-7-26-11-18-7-20-7-20-8-12-5 3-1 30 12 21 7 20 8 19 8 14 6 21 12 15 10 11 10 13 13 5 4 6 10 4 5 4 2v-2l-3-1 2-1-2-4h6l5-7 1-3h2v-3l6-1 2-5 4-5h2l2-4 5-8 4-2 2-7 7-10 2 1 7-8 3-3 1-2 8-4 1-10-6-18-7-14-5-7z" fill="#9C2F79"/>
<path transform="translate(351,387)" d="m0 0 2 1v5l-4 1-1 9-4 4-3 11-4 5-3 6v3l-8 7-110 110 1 6 91 91 3 1 6-8 6-11 7-12 7-10 8-11 9-11 6-1 2 4 2 9 4 9-1 3-3-6v-3h-2l-2-6-1-8-5 2-6 8-8 10-4 9-8 13-6 10-5 9-5 7-5 9-4 10-7 15-1 4 1 13 7 19 4 6 4 7 8 10 9 10 4 3v2l4 2 10 7 14 9 6 3v2l9 3 11 4v2l4 2-5-1-18-8-15-8-12-8-11-9-10-9-9-11-11-17-6-17-2-9v-7l5-13 4-9-1-5-14-14-7-8-33-33-8-7-5-5-5-6-5-4-10-10-4-5-5-5-6-5-5-5-1-9 7-8 13-13 4-2 2-4 37-37 5-4 7-8 6-5 5-5 4-5 23-23 5-4 7-8 7-6 7-8 5-4 5-5 5-6 5-5z" fill="#7945DE"/>
<path transform="translate(433,280)" d="m0 0 2 1-10 8-17 17-6 7-3 7-8 10-6 10-8 13-6 11-9 19-4 1-4 12-2 3h-2l-1 8-3 2-1 5v7l3-4 3-5 9-9 4-7 9-5 10-7 16-8 7-3 30-8 21-3h35l27 4 22 6 18 8 10 6 9 3 8 6 5 6v2h2v2h2l3 5 1 5 2 3v3l4-2 7-8 6-8v3l-6 8-8 9-5-1-7-12-12-13-10-8-16-9-15-6-14-4-21-4-16-2h-27l-27 4-19 5-6 3-1 2 7 11 11 12 7 7 13 10 15 9 18 10 19 8 6 3-3 1-18-8-21-10-8-5-11-7-9-7-14-12-4-3 5 6-1 7-5 7-1 5-5 8-3 5-5 6-5-2-2-1v-2l-6 1-2 6-2 19-4 4h-2l-2 5-11 12-5 5-4 3h-2l2 5-3 1h-6l-4-4-2-7-2-1 7 15 4 5-1 2-7-9-6-12-5-18v-24l2-6v-10l8-12 2-9 4-2 2-11 4-1-1-5 1-2h2l2-4 10-19 10-17 12-19 5-7h2l2-5 12-14 17-17z" fill="#9C2F79"/>
<path transform="translate(800,402)" d="m0 0v3l-5 10-8 13-6 10-9 16-6 12-3 5-9 18-6 13-1 3 3-2 3-6h2l2-6 8-11h2l2-4 5-5 14-18 4-4 5-3h3l-8 7-2 5-4 23-2 12-1 18v20l2 23 6 28 9 24 1 4-3-3-8-20-8-28 1 7-3-3-4-1 2-1 1-4h-3l-1 3-2-3-1 2-1-2h-3l-1 10-1 5v6l-2 6-3 8-4 4-5 1-2 2-1-2-2 6-5 5-6 10-1 5-3 1-3 5-3 2v4l-1 5-7 1v22l3 16 4 18 5 15 6 15 7 12-1 2-5-8-7-14-8-22-7-36-1-11v-31l2-19 5-29 7-26 10-28 3-9 10-21 8-17 12-22 10-17 8-13 10-15z" fill="#9C2F79"/>
<path transform="translate(356,590)" d="m0 0 2 1 1 3 1 12 4 2 1 2v18h-2l2 9-4 4-1 4h-3v31l2 6v19l-2 6-1 4 1 25v23l1 1v5h-6l-8-4v-2l-6-2-1-3-5-2-10-11-9-9-3-5-3-3-7-13-3-12v-10l22-44 5-6 3-6 3-3 4-8 3-2 3-6 3-1 1-5 4-5 2-1 3-10z" fill="#F1A548"/>
<path transform="translate(542,249)" d="m0 0 23 1 26 3 13 4-4 1-21-4h-12l2 3-1 5-5 12-1 2h-2v2l-2 1-1 5-5 8-5 2-3 5h-2l-2 5-3 8-9 14-7 14-3 3-2 7-1 3 9 5 12 4 6 6 12 3 3 3 11 4 5 5 6 3v2l5 2 4 4 4 6-1 3-4-6-4-4-5-3-9-3-14-8-14-6v-2l-9-2-15-4-27-4-17-1-3-1v-2l-4-2-1-4 1-7-1-5 4-11 5-5h2l6-12h2l2-6 10-25 7-9 2-6 6-3v-3l-8-2 1-3 2-1 18-1v-2z" fill="#E97759"/>
<path transform="translate(1042,401)" d="m0 0 5 1 33 33 5 4 4 5 42 42 5 4v2l4 2 52 52 1 7-2 5-5 5-5 4-4 5-10 10-12 11-75 75-4 5-5 5-5 2v-6l8-16 3-5 3-9 4-5 1-3 6-5 7-8 5-5 6-5 7-8 51-51v-6l-12-11-58-58-4-5-8-7-32-32v-2l-4-2-14-14v-6l1-2 3-1z" fill="#7746DF"/>
<path transform="translate(1008,297)" d="m0 0h7l28 10 5 2 9 2 11 7 2 3 7 4 2 3-1 9-7 15-15 29-10 16-1 4-3 1-3 7h-3v6l-6 7-8 12-8 8-4 1-3-2-1-3-11-7-15-9-3-3-16-8 1-3 19 6 12 5 5 5 8 3 2 4h7v-5l-6-4-1-5 2-2 1-6v-10l-3-1-1-97 1-2-2-1z" fill="#F0A448"/>
<path transform="translate(781,549)" d="m0 0h1l2 13 7 25 9 22 3 3 9 16 7 9v3l-4-3-6-7-4-6v-2l-4-2-3-6-8 5-4 9-2 8-1 3-3 2-4 13-6 9-5 1-1 4-2 3h-2l-2 10-4 7-3 8-7 2h-10l-4 1v6l1 3 3 1 2 13 5 8 6 12 3 5-1 4-6-8-3-7-8-16-6-17-4-13-4-24-1-3v-35h1l1 12 6-1 1-7-1-2 4-2 3-5h3v-5l6-10 4-5h2v-5l3-2h2l7-3 3-5 2-9 1-7 1-10 2-6 7 1v2l1-2h3v5h2v-1z" fill="#BE437B"/>
<path transform="translate(409,658)" d="m0 0 8 2 11 7 4 4 16 7 3 1v2l3 1-2 13v95l-1 1-1 8 12 2 9 4 13 1h21l27-3h7l1 2-1 2-10 1v2l-9 2-44 2h-3v-2l-10-1h-16l-2-1-14-2-24-6-17-6v-1l10 1v2h8v2h6l6 2 11 2v2l12 1h20l-17-3-19-4-12-4-2-2-1-9-1-2-2-14v-16l-2-6v-38l2-4 1 1v-22l1-10v-13l-2-1z" fill="#E97759"/>
<path transform="translate(886,684)" d="m0 0 9 2 16 4 29 5 48 2-2 4-10 2h-11l-1 3-3 2-3 7-5 4-4 8 2 2-3 1v2h3l2 2 1 3-3 1-1 6-3-2-5 7-3 1-3 5-4 3-5 1-3 4h2l-1 6h-3l-1 6-2 4-7 11-6 7 1 4h15l9 1-4 4-16 1-3 1-15 1h-13l-19-1-34-6-11-4 3-1 11 2 9 2 18 2 3-1 2-4v-6l4-8 2-6h2l2-5 11-11 8-16 3-5 3-8 8-14 8-7 4-8 10-4v-2l-14-5-16-3-9-4z" fill="#BE437C"/>
<path transform="translate(956,293)" d="m0 0h25v1l-19 1-6 2v3l1 1v16l-2 8-1 3v16l1 13 1 3v27l-2 7 3 1-1 4-6 1h-36l-2 3 4 1h-19l-12 1-1-3 10-6 7-3 3-5 1-7 1-35 3-4 3-10 3-16-1-6h-6l-1 1h-6l1-3 11-5 19-3 3-3z" fill="#EA8256"/>
<path transform="translate(478,1120)" d="m0 0h15l11 4 10 9 5 8 3 10v18l-3 9-4 8-8 8-10 5-4 1h-16l-9-4-8-6-6-8-4-11-1-6v-10l3-13 6-10 8-7 8-4z" fill="#ED9D4B"/>
<path transform="translate(1087,586)" d="m0 0 4 1 2 4v14l-2 15-5 14-2 6-4 6-3 9-10 19-1 7-6 9-11 20-10 16-12 17-6 8-11 9-6 7h-2v-6l6-13 2-10 2-24 7-14 5-9 9-14 7-13 3-9 12-21 14-23 5-10 12-14z" fill="#ED8E51"/>
<path transform="translate(379,1075)" d="m0 0h17l14 6 5 4h2l6-9h7v44h-6l-4-13-7-12-7-7-10-5-3-1h-12l-10 5-6 7-1 2v13l4 7 5 4 17 5 21 5 14 7 5 4 5 8 2 7v13l-4 12-7 9-10 7-10 3h-18l-10-3-9-5-5-2-8 9h-6v-47h6l5 15 7 12 9 8 8 4 9 2h10l10-4 5-5 3-4 2-6v-8l-3-7-1-3-5-2-13-5-26-7-12-5-7-6-5-10-1-5v-10l2-9 6-10 9-8z" fill="#ED9D4A"/>
<path transform="translate(642,282)" d="m0 0 7 3 14 14 1 5 4 4v5l-5 7-5 13v6l-10 19-11 19-9 14-4 4-11 16-9 8h-2l-1-11-5-7-1-7-4-4 1-7 2-5 5-4 4 1 3-6 1-6 4-8 4-5 4-11 12-12 6-7 4-2 1-2 1-16 1-2v-9z" fill="#F1AC45"/>
<path transform="translate(877,1120)" d="m0 0h19l9 3 7 6 3 6 1 50 2 6 5 1 6-1 2 5-8 4h-10l-7-4-4-7-8 6-8 4-3 1h-17l-8-3-5-4-3-6v-10l5-8 8-7 14-6 18-4h6l-1-15-3-5-6-4-10-1-10 3-2 4 4 8-2 6-3 3h-8l-5-4-1-2v-8l6-9 10-6z" fill="#A126E0"/>
<path transform="translate(705,1075)" d="m0 0h17l12 4 11 7 2-6 3-5h6l2 49h-6l-3-8-6-15-8-11-9-6-8-2h-7l-10 3-8 6-6 10-4 13-2 21 1 21 3 13 6 12 7 7 9 4 6 1h8l12-3 8-6 6-7 5-12 2-9h7l-3 15-5 10-9 10-10 6-10 3h-18l-13-4-11-6-10-10-8-14-4-13-1-8v-11l3-16 5-12 6-10 9-10 9-6 10-4z" fill="#E05E62"/>
<path transform="translate(962,290)" d="m0 0h28l20 3 5 1v1l-11-1h-48l-21 4-3 3-19 3-8 4-8 2-4 2-3 3-16 10-9 7-11 9-3 4h-2v2h-2v5l-6 2-4 5h-2l-2 5-6 7-5 7h-2l-2 5-3 6-4 4 1 1 1-3 7-5h2l1-2 2 5h-2l3 5v2h2l1 6-2 7-5 10-5 2-3 9 5-2 15-9 10-3 6-3 22-6 17-2h34l9 2 15 3 17 4 2 1v2l10 3 16 8 15 10v2l-4-2-14-9-19-9-13-5-16-4-11-2-12-1h-13l-18 1-21 4-17 5-18 8-11 6-16 11-2 2-5 2-5 3-3 3-7 9-8 10-4 2-2 4-9 11-4 8-3 3-3 5h-2l1-6 14-28 3-5 4-8 8-15 15-25 6-11 5-10 11-15 8-11 11-13 7-8 14-14 10-8 11-8 21-12 21-9 1-2 9-2 8-3 6 1 12-2z" fill="#DC436B"/>
<path transform="translate(543,251)" d="m0 0h31l17 2 13 4-4 1-21-4h-12l2 3-1 5-5 12-1 2h-2v2l-2 1-1 5-5 8-5 2-3 5h-2l-2 5-3 8-9 14-7 14-3 3-2 7-1 3 9 5 12 4 6 6 12 3 3 3 11 4 5 5 6 3v2l5 2 4 4 4 6-1 3-4-6-4-4-5-3-9-3-14-8-14-6v-2h-3v-2l-12-3-3-2-9-2-4-4-24-6-1-4 3-4h2l2-4 4-12 4-6h2l-1-4 8-7 10-17 5-5h2l2-4 5-6 4-5 6-5 2-8-5-9z" fill="#EA8156"/>
<path transform="translate(920,808)" d="m0 0h18l-6 8-101 101h-2l-2 4-126 126-8 5-5-1-7-6-231-231-1-3 1-1h13l10 2v2l4 1 5 4 7 8 8 7 4 5 8 7 181 181 5-1 7-8 59-59h2l2-4 5-5 12-11 69-69 5-6h2l2-4 5-5 6-5 7-8 6-5 24-24 1-3zm-3 2-3 1-31 31-8 7-94 94-8 7-9 9-7 8-36 36-5 4-7 8-11 10-5 5-4-1-168-168-8-7-23-23-6-5h-2l-2-4-5-5-4-2-8-1-2-2h-7l6 8 10 10 8 9 10 10 6 5 7 8 5 4 5 5 6 7h2l2 4 143 143 6 5 5 5 4 5 5 5 6 4 5-1 11-9 4-5 10-10 5-4 7-8 5-4 4-5 10-10 5-4 4-5 10-10 6-5 99-99 4-5 5-5 5-4 7-8 5-4 7-8 24-24v-2z" fill="#7946DF"/>
<path transform="translate(409,658)" d="m0 0 4 1 1 2 3 1 3 3 4 1 4 4v2h2l3 3-2 4v8l-2 10v95l2 1 4 8-8-1-12-4-2-2-1-9-1-2-2-14v-16l-2-6v-38l2-4 1 1v-22l1-10v-13l-2-1z" fill="#EA8256"/>
<path transform="translate(976,1075)" d="m0 0h14l6 3 5 6 1 2v8l-3 5-2 1h-8l-4-4v-7l4-4v-2l-8-1-7 3-5 8-1 5-1 24h19v7h-19l1 61 18 2v6h-48v-6l13-2 1-2 1-59h-14v-7h14v-17l3-12 6-9 8-7z" fill="#A126E2"/>
<path transform="translate(569,1075)" d="m0 0h13l7 3 5 6 1 2v7l-2 5-3 2h-8l-4-4v-6l4-5v-2l-2-1h-8l-8 6-3 10-1 24h19v7h-19l1 61 18 2v6h-48v-6l13-2 1-1 1-60h-14v-7h14v-17l3-12 6-9 8-7z" fill="#EE9E4A"/>
<path transform="translate(481,1126)" d="m0 0h9l8 4 6 8 2 8 1 15-2 16-5 10-6 5-4 2h-9l-7-4-6-8-3-12v-20l2-9 4-8 7-6z" fill="#17131C"/>
<path transform="translate(935,297)" d="m0 0 2 1v5h-2l-1 2h-7l2 5v4h2l1 9-2 4 1 7v15l1 10v27l-4 7-12 4-7 2-11 2-1 3-12 1-1-3 10-6 7-3 3-5 1-7 1-35 3-4 3-10 3-16-1-6h-6l-1 1h-6l1-3 11-5 19-3z" fill="#E97759"/>
<path transform="translate(333,627)" d="m0 0 3 1v5l-3 3-2 8 1 9-1 3v8l2 4v5h-4v5l-2 2-1 19v17l2 7v9h2l1 8 3 1 4 6-1 4-5-1-2-5-4-2-7-7v-3l-5-2-1-5-4-2-3-5-1-4-4-2-4-14v-10l17-34 5-5 2-5 4-5 3-6h4z" fill="#F1AD45"/>
<path transform="translate(1034,306)" d="m0 0 9 1 5 2 9 2 11 7 2 3 7 4 2 3-1 9-7 15-3 6-4 4-4 7h-2l-2 5-5 9-2 7-7 9-3 3-2 3h-4l1-5 5-7 4-21-1-11-1-14v-19l-3-18-4-2z" fill="#F1AC45"/>
<path transform="translate(779,1120)" d="m0 0h21l1 25 5-12 7-9 7-4h11l5 3 3 5v12l-5 5h-7l-4-3-1-9 2-4-6 1-7 8-5 13-3 14v23l1 2 3 1 14 1v6h-49v-6l11-1 3-1 1-2v-53l-2-5-4-2-9-1v-6z" fill="#E15F61"/>
<path transform="translate(1015,1090)" d="m0 0h6v32h25v7h-25l1 53 3 8 5 2 7-1 5-6 2-7 1-8h7l-2 14-5 9-8 6-3 1h-13l-8-4-5-7-1-4v-56h-13v-6l10-4 5-6 4-10z" fill="#A225DE"/>
<path transform="translate(608,1090)" d="m0 0h6v32h25v7h-25l1 53 3 8 5 2 7-1 5-6 2-7 1-8h6v9l-4 11-5 6-8 4h-13l-8-4-5-7-1-4v-56h-13v-6l10-4 5-6 4-10z" fill="#E15F61"/>
<path transform="translate(415,395)" d="m0 0 21 18 4 6v2l-5 3 1 5-4 4-3-1-7 8-3 3-6 4-4 7-5 7-2-1-4 9-8 5-6 7-7 7-2 1-1 3-8 2-5 4-6-1-1-6 6-4 5-5 11-12 2-4 5-4 2-19 3-6 6-1v2l7 2 6-7 4-8 3-5 1-5 4-5 1-7-2-1v-3l-3-1z" fill="#B03D88"/>
<path transform="translate(986,698)" d="m0 0 5 1-2 5-2 7-10 5h-2v6l-4 6-5 6-2 4-2 5h-3l1 2-6 5-6 11-2 12-2 1-3 5-4 1v-2l-6 2v4l-4 1-6 15-1 1-15 1v-5l8-10 5-8 2-4 2-6h3l1-6h-2l2-4 4-2 5-2 2-2 2-4 3-1 4-7 3 2 2-5 2-1-1-2-1-3h-3v-2l2-1-2-2 5-9 5-4 4-9h2l1-2 19-2 2-2z" fill="#A63388"/>
<path transform="translate(777,511)" d="m0 0 2 3 3 47 1 5-3-3-4-1 2-1 1-4h-3l-1 3-2-3-1 2-1-2h-3l-1 10-1 5v6l-2 6-3 8-4 4-5 1-2 2-1-2-2 6-5 5-6 10-1 5-3 1-3 5-3 2v4l-1 5-7 1v-25l1-2 5-2-1-10 1-3 8-4 5-5 1-3h-3l2-5 4-4 11-1 4-5 3-9 7-14 1-5v-7l1-5 4-3 3-7z" fill="#A53288"/>
<path transform="translate(673,578)" d="m0 0 2 2 1 5v11l-3 1 2 6v6l-2 2-5-2-4 7 1 3 8 1 1 1-1 8h-4l-4-5v-2h-2v-4h-4l-1-2-4 2-1 5-5 8h-2l-2 5-5 12-7 5-4 2-7 8-1 1-1 10-2 5-2 6-3 1-3-4-2-12-4-4v-2h3v-2l-3-1 2-1-2-4h6l5-7 1-3h2v-3l6-1 2-5 4-5h2l2-4 5-8 4-2 2-7 7-10 2 1 7-8 3-3 1-2 8-4z" fill="#B03D88"/>
<path transform="translate(414,397)" d="m0 0 4 2 3 4-1 7-5 7-1 5-5 8-3 5-5 6-5-2-2-1v-2l-6 1-2 6-2 19-4 4h-2l-2 5-11 12-5 5-4 3h-2l2 5-3 1h-6l-4-4-2-7-2-2 1-2 7 2v-1l17-2v-6l-2-6 1-5 2-5-3 1 2-4 4-3 7-3 1-5 2-3h2l2-5 5-15 8-7 5-5 7-4 5-6z" fill="#A63388"/>
<path transform="translate(1088,589)" d="m0 0h2v3h2v11l-2 11h-2l-1 12h-2l-2 11-5 10-3 7-4 9-6 5-2 9h-2v2l-2 1-2 8-3 4h-2l-1 2-1-4 2-1 2-8h2v-15l-1-8 5-5 1-5 1-9 6-18 6-12 1-5 3-3h2l2-4z" fill="#F1AB45"/>
<path transform="translate(690,71)" d="m0 0 5 1 6 5 7 8 38 38 7 8 19 19-3 1-50-50-8-7-12-13-5-5h-5l-9 10-68 68-11 10-4 5-8 7-4 5-8 7-26 26-4 5-8 7-18 18-1 3 13-1h19l22 2 19 4 21 7 16 8-3 1-5-2v-2l-5-1-9-4-21-6-18-3-14-1h-38l-10 2-15 1-1 3-19 6-18 8-6 3-1 3-5 3-7 2 5-5 11-7 12-6 22-8 5-5h16l6-2 6-5 5-5 4-5 5-5 8-6 9-10 8-7 81-81 4-5h2v-2h2l1-3 5-5 7-6 28-28z" fill="#963596"/>
<path transform="translate(689,51)" d="m0 0 7 1 5 4 7 8 6 5 7 8 10 10 8 7 5 5 5 6 5 5 5 4 10 10 5 6 5 5 5 4 7 8 5 4 7 8 5 4 7 8 14 14 5 4 5 5 4 5 5 5 6 5 12 12-1 3-7-6-1-2-5-3-2-4-4-2-4-6-8-7-2-4h-2l-7-8-10-10-6-5-13-13v-2l-4-2-22-22-5-4-10-10-5-6-5-5-5-4-10-10-5-6-5-5-5-4-5-5-4-5-5-5-6-3-7 2-4 5-4 1-2 5-5 2-2 4-5 6-5 3-4 5h-2l-2 5-5 4-10 10h-2l-2 4-9 9h-2l-2 5-4 1-1 4-5 3-5 5-5 6-8 7-4 5-5 5-5 4-5 5-4 5-5 5-10 9h-2l-2 4-3 1-2 4-3 3h-2l-2 4-3 3h-2l-2 4-13 13-9 8-4 5-4 3 1-4 83-83h2l2-4 31-31 5-4 7-8 5-4 4-5 41-41z" fill="#993492"/>
<path transform="translate(746,123)" d="m0 0 7 6 58 58 8 7 4 5 5 5 6 5 13 13 6 5 10 10 4 5 5 4 5 5 2 4 4 2 5 5 4 5 6 5v2l5 2 10 10 5 6 7 3-1 2-4 1-2-1-1 2-147-147v-3l-24-24z" fill="#7D43D2"/>
<path transform="translate(900,1158)" d="m0 0h1v17l-5 10-7 6-9 3-8-1-5-5-1-3v-9l3-6 8-6 12-4z" fill="#16131C"/>
<path transform="translate(433,280)" d="m0 0 2 1-10 8-17 17-6 7-3 7-8 10-6 10-8 13-6 11-9 19-4 1-4 12-2 3h-2l-1 8-3 2-1 5v7l3-4 3-5 9-9 4-7 9-5 10-7 16-8 7-3 3 1-7 5-14 6-11 8-10 7-6 7-5 4-5 5-3 8-3 4-3 9-4 4-1 18-1 3-3-1-1-5v-10l4-14 1-5h-2l2-6 4-5 2-9 4-2 2-11 4-1-1-5 1-2h2l2-4 10-19 10-17 12-19 5-7h2l2-5 12-14 17-17z" fill="#BE437C"/>
<path transform="translate(1041,663)" d="m0 0 1 2-10 19-4 9-3 7-3 11-1 12-1 2v7l2 2v4l4-2 3-3 4-2 4-6 3-7h2l2-5 4-8 3-3 1-4 3-3 5-9 1 2-10 19-14 22-13 18-5 5-9 8-6 7h-2v-6l6-13 2-10 2-24 7-14 5-9 9-14 7-13z" fill="#E97C58"/>
<path transform="translate(670,595)" d="m0 0 4 1 1 13-2 2-5-2-4 7 1 3 8 1 1 1-1 8h-4l-4-5v-2h-2v-4h-4l-1-2-4 2-1 5-5 8h-2l-2 5-5 12-7 5-4 2-7 8-1 1-1 10-2 5-2 6-3 1-3-4-2-12-3-4 4 1 2 2h3l6-11 5-5 7-8 3-6 10-12 8-15 6-7 5-5 5-4z" fill="#A63389"/>
<path transform="translate(766,558)" d="m0 0 2 2-1 7-1 5v6l-2 6-3 8-4 4-5 1-2 2-1-2-2 6-5 5-6 10-1 5-3 1-3 5-3 2v4l-1 5-7 1v-23l6-2 4-4 4-2v-8l2-2 6-1 1-3 5-5 5-2 2-6 8-17 3-7z" fill="#B03D88"/>
<path transform="translate(356,583)" d="m0 0 5 1 3 12 4 9-1 3-3-6v-3h-2l-2-6-1-8-5 2-6 8-8 10-4 9-8 13-6 10-5 9-5 7-5 9-4 10-7 15-1 4 1 13 7 19 4 6 4 7 8 10 9 10 4 3v2l4 2 10 7 14 9 6 3v2l9 3 11 4v2l4 2-5-1-18-8-15-8-12-8-11-9-10-9-9-11-11-17-6-17-2-9v-7l5-13 4-9 1-5 3-2 2-5 6-11 5-7 6-11 7-12 7-10 8-11 9-11z" fill="#9C2F79"/>
<path transform="translate(962,290)" d="m0 0h28l20 3 5 1v1l-11-1h-48l-21 4-3 3-19 3-8 4-8 2-4 2-3 3-16 10-9 7-11 9-3 4h-2v2h-2v5l-6 2-4 5h-2l-2 5-6 7-5 7h-2l-2 5-3 6-5 3h-2l2-4 8-12 12-14 7-9 17-17 10-8 11-8 21-12 21-9 1-2 9-2 8-3 6 1 12-2z" fill="#B73A75"/>
<path transform="translate(1111,619)" d="m0 0 6 1 1 4 5-5 2 1-50 50-3-1 4-10 4-9 7-11 9-11 3-1h2z" fill="#4C67FC"/>
<path transform="translate(1041,659)" d="m0 0 1 4-6 10-8 14-5 7-10 20-2 24-3 13-5 10-1 6 6-5 5-6 7-5-2 4-14 16-10 9-14 10-10 4-1 1h-5l2-5 14-9 8-6 8-10 5-7 6-17 1-8 1-21 7-14 5-8 4-5 4-4z" fill="#D95378"/>
<path transform="translate(1084,596)" d="m0 0 1 2-4 6-5 10-3 8-1 7v10l-2 13 2 1-3 5-4 2 3 6-3 2-2 9h-2v2l-2 1-2 8-3 4h-2l-1 2-1-4 2-1 2-8h2v-15l-1-8 5-5 1-5 1-9 6-18 6-12 1-5z" fill="#F1A548"/>
<path transform="translate(335,409)" d="m0 0h2l2 9-2 1-2 3h-4l-3 8-5 5-1 2-5 1-1 5-4 2-3 4-4 1-2 5-4 2-3 5-5 3-2 3h-4l-1 4-4 1-3-2v-3l5-2 2-5 4-3 2-4 4-2 2-4h6v-5l5-2 1-5 4-2 3-6 4-1 2-4 11-11z" fill="#A424E4"/>
<path transform="translate(518,708)" d="m0 0 4 1 2 10 1 7 1 2v7l-1 4v15l1 40 1 5-1 1h-7l-3-4 1-2h3v-36l-1-9-4-4 1-9-2 1-1-10 2-2v-13h3z" fill="#EF617C"/>
<path transform="translate(456,361)" d="m0 0h39l22 3 24 7-4 1-18-5-27-4h-35l-25 4-26 7-7 3-16 8-10 7-9 5-5 8-9 9-4 8-2-1v-7l2-6 3-1 1-8h2l3-9 3-7h3l-1 4-4 10-3 4 13-10 5-5 5-4 13-3 5-3 19-7 20-5 2-1z" fill="#DC456C"/>
<path transform="translate(800,402)" d="m0 0v3l-5 10-8 13-6 10-9 16-6 12-3 5-9 18-6 13-1 3 3-2 3-6h2l2-6 8-11h2l2-4 5-5 14-18 4-4 5-3h3l-8 7-1 2h-2l-2 4-6 9-14 15-8 11-9 14-4 3-3 5h-1l1-7 4-14 4-8 8-17 12-22 10-17 8-13 10-15z" fill="#BF447C"/>
<path transform="translate(357,584)" d="m0 0 3 1v3l-4 1-2 2-3 11-5 4-3 7-4 4-3 5-3 3-3 6-4 5-3 5-3 4-22 44v10l2 8v7l-3-4-3-12v-7l4-10 7-15 3-8 6-9 5-8 4-7 11-19 2-2 3-8 16-20z" fill="#EC8B52"/>
<path transform="translate(946,741)" d="m0 0 4 3-2 5-4 5-4 8-3 1-1 3-5 5-7 8-4 8-2 13-1 1-12 1v-5l8-10 5-8 2-4 2-6h3l1-6h-2l2-4 4-2 5-2 2-2 2-4 3-1z" fill="#B03D88"/>
<path transform="translate(1030,1216)" d="m0 0h9l1 32 3 2h-8-2l-1 1-9-1-4-6v-9l4-6 2-1h7l2 1-1-11z" fill="#F3CCCB"/>
<path transform="translate(978,1216)" d="m0 0h9l1 32 3 2h-8-2l-1 1-9-1-4-6v-9l4-6 2-1h7l2 1-1-11z" fill="#F3CCCB"/>
<path transform="translate(842,1216)" d="m0 0h9l1 32 3 2h-8-2l-1 1-9-1-4-6v-9l4-6 2-1h7l2 1-1-11z" fill="#F3CCCB"/>
<path transform="translate(585,1216)" d="m0 0h9l1 32 3 2h-8-2l-1 1-9-1-4-6v-9l4-6 2-1h7l2 1-1-11z" fill="#F3CCCB"/>
<path transform="translate(457,362)" d="m0 0h35l27 4 22 6 18 8 10 6 9 3 8 6 5 6v2h2v2h2l3 5 1 5 2 3v3l4-2 7-8 6-8v3l-6 8-8 9-5-1-7-12-12-13-10-8-16-9-15-6-14-4-21-4-16-2h-27l-27 4-19 5-5 1 1-2 21-6z" fill="#9C2F79"/>
<path transform="translate(604,692)" d="m0 0 6 1-1 22-3 21-6 20-5 8-3 6-7 10-8 9-2-1 5-6 4-6 4-8 3-3 4-10 3-4 2-18 4-6 1-10v-20l-1-2-7 2-22 2h-24l-19-1v-1l48-1 22-3z" fill="#BF447C"/>
<path transform="translate(433,280)" d="m0 0 2 1-10 8-17 17-6 7-3 7-8 10-6 10-8 13-6 11-9 19-4 1-4 12-2 3h-2l-1 8-5 5-2 9-4 6h-3l2-6 4-5 2-9 4-2 2-11 4-1-1-5 1-2h2l2-4 10-19 10-17 12-19 5-7h2l2-5 12-14 17-17z" fill="#BE3C73"/>
<path transform="translate(965,790)" d="m0 0m-1 1 1 2-1 2 12-4-3 3-10 5-23 8-5 2h-15l-7 1h-40l-21-2-16-4 3-1 14 3 8 1 19 1h13l15-1 3-1 16-1 4-4 9-1 5-3 13-3z" fill="#B23C7B"/>
<path transform="translate(826,372)" d="m0 0 2 1-2 6 7 1 3 2v6l-3 8-1 1v12l2 5v4l-2 1h-10l3-9 2-3 1-11h-2l-3-5 1-3-1-3-8 6h-2l-1 5-2-1 2-5 3-2 5-10 5-5z" fill="#EF607C"/>
<path transform="translate(866,222)" d="m0 0 7 6 64 64-3 1-8-4-2-4-4-2-2-4-5-3-2-4-5-5-5-4-5-5-4-5-5-5-5-4-5-5-4-5-5-5-4-3 1-3z" fill="#7B44D7"/>
<path transform="translate(520,241)" d="m0 0h2l-2 6 13-1h19l22 2 19 4 21 7 16 8-3 1-5-2v-2l-5-1-9-4-21-6-18-3-14-1h-38l-10 2-15 1-1 3-19 6-18 8-6 3-1 3-5 3-7 2 5-5 11-7 12-6 22-8 5-5h16l6-2 6-5z" fill="#9C2F78"/>
<path transform="translate(664,1228)" d="m0 0 8 1 3 3 2 4v7l-4 6-3 2-9-1-5-7v-7l4-6z" fill="#201621"/>
<path transform="translate(518,1228)" d="m0 0 8 1 3 3 2 4v7l-4 6-3 2-9-1-5-7v-7l4-6z" fill="#201621"/>
<path transform="translate(300,714)" d="m0 0 3 4 4 7v3h2v4l4 2 15 16 12 11 9 6v2h2v2l10 2 3 7 1 2-5-2-11-7-10-7-7-5-12-12-10-13-4-7-5-8z" fill="#E8735A"/>
<path transform="translate(965,703)" d="m0 0h9l-2 1v7l-7 9-3 5h-2l-2 5-3 1-2 4-2-1v-2h-3v-2l2-1-2-2 5-9 5-4 4-9h2z" fill="#B03D88"/>
<path transform="translate(368,608)" d="m0 0 4 5 6 10 10 13 13 12 13 9 21 12 19 8 18 6 21 6 36 6v1h-9l-14-2-23-5-23-7-24-10-18-10-9-4-1-2-4-2v-2l-4-1-4-3-1-3-8-7-5-6-5-5-5-7-3-7z" fill="#9C2F79"/>
<path transform="translate(305,664)" d="m0 0 1 2-10 21-1 4 1 13 7 19 4 6 4 7 8 10 9 10 4 3v2l4 2 10 7 14 9 6 3v2l9 3 11 4v2l4 2-5-1-18-8-15-8-12-8-11-9-9-10-9-11-7-11-4-7-6-16-1-7v-9l4-10 6-14z" fill="#DA446C"/>
<path transform="translate(891,406)" d="m0 0h34l19 3 14 4 8 2v2l10 3 16 8 15 10v2l-4-2-14-9-19-9-13-5-16-4-11-2-12-1h-13l-18 1-21 4-17 5-18 8-11 6-6 4-2-1 10-7 16-8 22-8 17-4z" fill="#9C2F79"/>
<path transform="translate(611,152)" d="m0 0v3l-10 9-4 5-8 7-4 5-8 7-26 26-4 5-8 7-16 16h-4l2-4 5-5 5-4 3-4 5-3 67-67z" fill="#9338A0"/>
<path transform="translate(690,71)" d="m0 0 5 1 6 5 7 8 38 38 7 8 19 19-3 1-50-50-8-7-12-13-4-4-2-3h-5z" fill="#A0348F"/>
<path transform="translate(595,144)" d="m0 0h2l-2 4-8 9-5 5-5 4-5 5-4 5-5 5-10 9h-2l-2 4-3 1-2 4-3 3h-2l-2 4-3 3h-2l-2 4-13 13-9 8-4 5-4 3 1-4 83-83h2l2-4z" fill="#9238A1"/>
<path transform="translate(999,1228)" d="m0 0h10l3 3 1 18h3v2h-6l-2-2-3 2h-8l-3-3v-5l5-4 5-2h4l-1-6-7-1v6l-5-1 1-4z" fill="#F6DFDE"/>
<path transform="translate(918,1228)" d="m0 0h10l3 3 1 18h3v2h-6l-2-2-3 2h-8l-3-3v-5l5-4 5-2h4l-1-6-7-1v6l-5-1 1-4z" fill="#F6DFDE"/>
<path transform="translate(754,1228)" d="m0 0h10l3 3 1 18h3v2h-6l-2-2-3 2h-8l-3-3v-5l5-4 5-2h4l-1-6-7-1v6l-5-1 1-4z" fill="#F6DFDE"/>
<path transform="translate(1027,687)" d="m0 0 1 4-4 4-2 8-3 4-2 13-1 11-3 11-2 10-3 7 2 1-6 7h-2v-6l6-13 2-10 2-24 7-14 5-9z" fill="#E56360"/>
<path transform="translate(563,471)" d="m0 0 9 3 20 9 23 12 9 7 14 11 10 10-1 2-12-12-5-3v-2l-6-1-19-13-15-8-13-5-10-4-4-3z" fill="#B43A77"/>
<path transform="translate(390,795)" d="m0 0 10 1v2h8v2h6l6 2 11 2v2l12 1 30 1v2l8 1h16l22-1 10-1-3 2-6 1-44 2h-3v-2l-10-1h-16l-2-1-14-2-24-6-17-6z" fill="#BE4371"/>
<path transform="translate(712,1229)" d="m0 0h10l-3 1 4 13 3-6v-5l-2-3h10l-3 1 4 10v4h2l1-7 1-6-2-2h9l-1 2h-2l-3 11-4 9-4-5-3-8-5 13h-2l-4-8-4-10z" fill="#F8F0EF"/>
<path transform="translate(433,1228)" d="m0 0h8l5 6v6h-15l3 8 5 1 4-1 1-4h2l-2 5-3 2h-8l-5-5-1-3v-8l3-5z" fill="#F2CDCD"/>
<path transform="translate(517,248)" d="m0 0h38l21 2 11 2v1l-13-1-25-2-25 1-20 2-12 5-9 1-11 4-12 5-11 6h-2l1-3 19-9 14-5 10-3 3-3 20-2z" fill="#DC446B"/>
<path transform="translate(457,1228)" d="m0 0h8l3 3 1 18h3v2h-6l-2-2-3 2h-8l-3-3v-5l5-4 5-2h4l-1-6-6-2z" fill="#F6DFDE"/>
<path transform="translate(863,1228)" d="m0 0h8l5 6v6h-15l2 6 3 3 7-1 1-4h2l-2 5-3 2h-8l-5-5-1-3v-8l3-5z" fill="#F4D4D4"/>
<path transform="translate(801,1228)" d="m0 0h8l5 6v6h-15l2 6 3 3 7-1 1-4h2l-2 5-3 2h-8l-5-5-1-3v-8l3-5z" fill="#F4D4D4"/>
<path transform="translate(607,1228)" d="m0 0h8l5 6v6h-15l2 6 3 3 7-1 1-4h2l-2 5-3 2h-8l-5-5-1-3v-8l3-5z" fill="#F4D4D4"/>
<path transform="translate(785,143)" d="m0 0 4 1 5 6 35 35 5 4 5 5 4 5 5 5 6 5 12 12-1 3-7-6-1-2-5-3-2-4-4-2-4-6-8-7-2-4h-2l-7-8-10-10-6-5-13-13v-2l-4-2-5-5z" fill="#983593"/>
<path transform="translate(1041,659)" d="m0 0 1 4-6 10-8 14-5 7-10 20-2 24-2 10-2-3 2-33 7-14 5-8 4-5 4-4z" fill="#D14472"/>
<path transform="translate(962,290)" d="m0 0h28l20 3 5 1v1l-11-1h-48l-21 4-3 3-4 1h-8l5-4 10-2v-2l9-2z" fill="#BB3A74"/>
<path transform="translate(545,1228)" d="m0 0h6l5 5v16l3 1h-11l3-1-1-17-4-1-4 4v13l3 2h-12l3-2v-17l-3-2h8 2z" fill="#F3D1D1"/>
<path transform="translate(534,804)" d="m0 0 2 1v2l-17 4-22 1h-16l-8-2v-2l36-1z" fill="#EC8D51"/>
<path transform="translate(820,640)" d="m0 0 7 6 11 10 16 11 10 5 3 3 14 6v3l-5-1-16-8-11-6-11-8-8-7-3-2-1-4-6-6z" fill="#C64376"/>
<path transform="translate(356,583)" d="m0 0 5 1 3 12 4 9-1 3-3-6v-3h-2l-2-6-1-8-5 2-6 8-8 10-4 9-8 13-6 10-5 9-4 6-1-4 6-8 3-9 4-7 8-12 11-16 7-8z" fill="#9C2F79"/>
<path transform="translate(234,511)" d="m0 0 4 1 1 3-2 3-2 1-2 5-4 2-3 5-5 5-4 2-3-2v-6l5-3 2-4 5-1 1-5 5-3z" fill="#A424E4"/>
<path transform="translate(571,387)" d="m0 0 7 2 8 6 5 6v2h2v2h2l3 5 1 5 2 3v3l4-2 7-8 6-8v3l-6 8-8 9-5-1-7-12-12-13-6-7z" fill="#C5496C"/>
<path transform="translate(406,373)" d="m0 0 3 1-7 5-14 6-11 8-10 7-6 7-5 4-5 5-2 1 1-4 10-10 4-7 9-5 10-7 16-8z" fill="#BF447C"/>
<path transform="translate(777,534)" d="m0 0 2 1 2 9 1 17 1 5-3-3-4-1 2-1 1-4h-3l-1 3-2-3-1 2-1-2-2 1 1-12 2-3 4-2z" fill="#B03D88"/>
<path transform="translate(630,268)" d="m0 0 5 2 9 6 17 17 9 16-1 6-6 14-4 8-2-4 5-13 5-7v-5l-1-3-3-1-2-7-9-10-4-4-5-2-9-7-3-3z" fill="#B8416F"/>
<path transform="translate(383,1217)" d="m0 0 4 1-3 3-2 5v15l4 7 7 1 5-3 2-2 1-4h2l-2 7-5 4h-9l-5-2-6-7-1-3v-10l4-8z" fill="#F7E8E8"/>
<path transform="translate(428,668)" d="m0 0 6 2 21 9 15 5 21 6 20 4 18 2-3 2-19-1-19-5-12-3-8-3-9-2-8-4-12-5-10-5z" fill="#DA446C"/>
<path transform="translate(800,402)" d="m0 0v3l-5 10-8 13-9 15-4 4-10 19-17 34-1-3 5-10 8-17 12-22 10-17 8-13 10-15z" fill="#A63579"/>
<path transform="translate(934,292)" d="m0 0 3 2h-2v2l-12 4-6 3-11 4-9 3-4 2-3 3-16 10-6 4-5 3-2-1 7-6 10-7 20-11 19-8 1-2 9-2z" fill="#BB3A73"/>
<path transform="translate(456,361)" d="m0 0h39l22 3 24 7-4 1-18-5-27-4h-35l-25 4-21 6h-2l1-3 23-6 2-1z" fill="#DD446B"/>
<path transform="translate(735,93)" d="m0 0 4 1 5 5 5 6 5 5 5 4 10 10 5 6 5 5 5 4 2 4h-3l-15-15-5-4-10-10-5-6-5-5-5-4z" fill="#973595"/>
<path transform="translate(937,1216)" d="m0 0h9v33l4 1h-13l4-1-1-31z" fill="#F2C3C2"/>
<path transform="translate(1028,1229)" d="m0 0 4 1 2 2v15l-3 3-5-1-2-3v-12l2-4z" fill="#19141E"/>
<path transform="translate(976,1229)" d="m0 0 4 1 2 2v15l-3 3-5-1-2-3v-12l2-4z" fill="#19141E"/>
<path transform="translate(840,1229)" d="m0 0 4 1 2 2v15l-3 3-5-1-2-3v-12l2-4z" fill="#19141E"/>
<path transform="translate(583,1229)" d="m0 0 4 1 2 2v15l-3 3-5-1-2-3v-12l2-4z" fill="#19141E"/>
<path transform="translate(664,1228)" d="m0 0 8 1 3 3 2 4v7l-4 6-3 2-9-1-5-7v-7l4-6zm1 1-4 4v13l4 4 5-1 2-3v-13l-4-4z" fill="#F4DBDC"/>
<path transform="translate(518,1228)" d="m0 0 8 1 3 3 2 4v7l-4 6-3 2-9-1-5-7v-7l4-6zm1 1-4 4v13l4 4 5-1 2-3v-13l-4-4z" fill="#F4DBDC"/>
<path transform="translate(640,1228)" d="m0 0h7l5 1v7h-2l-3-5-5-1-1 5 12 5v8l-3 3h-8l-3-1h-3v-7l3 1 1 4 7 1 2-1v-5l-10-3-2-2v-7z" fill="#F7E5E4"/>
<path transform="translate(836,803)" d="m0 0 14 2 11 2 19 1h13l35-2 13-2 7-1-3 2-10 4h-15l-7 1h-40l-21-2-16-4z" fill="#9C2F79"/>
<path transform="translate(518,242)" d="m0 0 2 1-4 5-2 2-22 2-1 3-19 6-18 8-6 3-1 3-5 3-7 2 5-5 11-7 12-6 22-8 5-5h16l6-2z" fill="#9C2F79"/>
<path transform="translate(889,405)" d="m0 0h34v1l-32 1-20 3-23 7-17 7-10 5 1-3 12-7 10-3 6-3 22-6z" fill="#DC446B"/>
<path transform="translate(1090,611)" d="m0 0h1v9l-5 14-2 6-4 6-3 9-10 19-1 7-5 5 2-8 3-9 4-6 6-12 4-10 3-7 2-8h2l1-12h2z" fill="#E56360"/>
<path transform="translate(750,751)" d="m0 0 6 4 7 8 5 5 5 2 13 10 15 8 5 2 2 4-9-3-16-9-14-10-19-19z" fill="#BF3F76"/>
<path transform="translate(701,1220)" d="m0 0h2v9h7v1h-7l1 19h4l1-6h2l-1 6-2 2h-7l-3-4v-17l-3-1h3v-2h2z" fill="#F0C2C3"/>
<path transform="translate(786,1228)" d="m0 0h5l2 2-1 5-4-1-1-3-3 6-1 12h5v1h-14l4-1-1-18-3-2h8l1 2z" fill="#F3CDCD"/>
<path transform="translate(418,1228)" d="m0 0h5l2 2-1 5-4-1-1-3-3 6-1 12h5v1h-14l4-1-1-18-3-2h8l1 2z" fill="#F3CDCD"/>
<path transform="translate(688,1215)" d="m0 0h5l-5 5-1 9h5v1h-5l1 18 4 2h-13l3-2 1-18-4-1h4v-8l3-5z" fill="#F7EBEB"/>
<path transform="translate(798,445)" d="m0 0 2 1-8 7-1 2h-2l-2 4-6 9-14 15-8 11h-2l1-5 7-9h2l2-4 5-5 14-18 4-4 5-3z" fill="#BF447C"/>
<path transform="translate(1066,358)" d="m0 0 1 2-14 26-7 11-1 4-3 1-3 7h-3v6l-6 7-1-2 6-12 4-5 10-15 2-7 7-12 3-3z" fill="#A23177"/>
<path transform="translate(899,1228)" d="m0 0h8l3 3-1 5h-4l-1-6-5 1-1 2v12l2 5 6-2 2-4h2l-1 4-3 3h-8l-4-3-2-4v-8l3-5z" fill="#F3D0D0"/>
<path transform="translate(482,1228)" d="m0 0h8l3 3-1 5h-4l-1-6-5 1-1 2v12l2 5 6-2 2-4h2l-1 4-3 3h-8l-4-3-2-4v-8l3-5z" fill="#F3D0D0"/>
<path transform="translate(309,662)" d="m0 0 1 2-10 21-2 4v10l2 8v7l-3-4-3-12v-7l4-10 8-17z" fill="#EC8953"/>
<path transform="translate(727,107)" d="m0 0 4 1 15 15 7 8 19 19-3 1-42-42z" fill="#923698"/>
<path transform="translate(561,202)" d="m0 0v3l-10 9-4 5-8 7-16 16h-4l2-4 5-5 5-4 3-4 5-3 17-17z" fill="#873EBD"/>
<path transform="translate(595,144)" d="m0 0h2l-2 4-8 9-5 5-5 4-5 5-4 5-5 5-9 8-2-2 32-32h2l2-4z" fill="#95379E"/>
<path transform="translate(328,759)" d="m0 0 6 2 10 8 11 7 11 6v2l9 3 11 4v2l4 2-5-1-18-8-15-8-12-8-11-9z" fill="#BA3973"/>
<path transform="translate(435,801)" d="m0 0h8l19 3 8 2h35l27-3h7l1 2-1 2h-3l-2-2-25 3h-44l-5-2-25-4z" fill="#EB8356"/>
<path transform="translate(1019,751)" d="m0 0v3l-8 9-7 8-6 6-8 2 2-6 5-5 6-5-1 4 6-5 5-6z" fill="#E25863"/>
<path transform="translate(361,375)" d="m0 0 1 3v5l-4 1-4 12-2 3h-2l-1 8-5 5-2 9-4 6h-3l2-6 4-5 2-9 4-2 2-11 4-1-1-5 1-2h2l2-4z" fill="#A8357F"/>
<path transform="translate(1007,745)" d="m0 0h1v6l-7 13-5 7-11 9-5 4-6 4-3 3-6 1 2-3 9-5 12-9 8-10 5-7 5-12z" fill="#C84577"/>
<path transform="translate(1022,698)" d="m0 0 1 3-4 6-2 13-1 11-3 11-2 10-3 7 2 1-6 7h-2l2-6 6-13 3-17 1-15 4-12z" fill="#EA7859"/>
<path transform="translate(142,1176)" d="m0 0h11l2 1v7l-5 5-5-2-3-6z" fill="#362636"/>
<path transform="translate(632,107)" d="m0 0h2l-1 4-5 4-2 4-5 2-2 5-4 1-1 4-5 3-5 5-5 6-3-1 6-7 17-17 5-4 7-8z" fill="#9A3490"/>
<path transform="translate(368,608)" d="m0 0 4 5 6 10 10 13 13 12 11 8 1 3-4-1-1-2-4-2v-2l-4-1-4-3-1-3-8-7-5-6-5-5-5-7-3-7z" fill="#B33A72"/>
<path transform="translate(1015,295)" d="m0 0 7 1 20 7 5 3v2l6 1v1l-8-1-12-5-16-5-2-1z" fill="#C35668"/>
<path transform="translate(670,71)" d="m0 0v3l-6 7-5 3-4 5h-2l-2 5-5 4-10 10-3-1 6-7 5-5 5-4 7-8 13-11z" fill="#A0338A"/>
<path transform="translate(92,1206)" d="m0 0 8 1 1 1v7l-5 6-3-1-3-6v-6z" fill="#27252D"/>
<path transform="translate(1060,686)" d="m0 0 1 2-10 19-14 22-13 18-4 4 2-5 13-18 5-10h2l2-5 4-8 3-3 1-4 3-3z" fill="#A33177"/>
<path transform="translate(1034,1218)" d="m0 0h1v13h-3l-4-1-2 1-1 3v12l3 3v2l-6-2-3-5v-9l4-6 2-1h7l2 1z" fill="#F1CACB"/>
<path transform="translate(982,1218)" d="m0 0h1v13h-3l-4-1-2 1-1 3v12l3 3v2l-6-2-3-5v-9l4-6 2-1h7l2 1z" fill="#F1CACB"/>
<path transform="translate(846,1218)" d="m0 0h1v13h-3l-4-1-2 1-1 3v12l3 3v2l-6-2-3-5v-9l4-6 2-1h7l2 1z" fill="#F1CACB"/>
<path transform="translate(589,1218)" d="m0 0h1v13h-3l-4-1-2 1-1 3v12l3 3v2l-6-2-3-5v-9l4-6 2-1h7l2 1z" fill="#F1CACB"/>
<path transform="translate(700,59)" d="m0 0 6 3 8 7 7 8 15 15v3l-4-2-5-5-4-5-5-5-5-4-5-5-4-5-4-3z" fill="#9A348F"/>
<path transform="translate(712,1229)" d="m0 0h10l-3 1 4 13 2-5 3-1-1 6-3 8h-2l-4-8-4-10z" fill="#F5DEDE"/>
<path transform="translate(390,795)" d="m0 0 10 1v2h8v2h6l6 2 11 2v2l12 1 2 2h-9l-18-4-20-6-8-3z" fill="#BA3D70"/>
<path transform="translate(952,1229)" d="m0 0h9v20l4 1h-13l4-1-1-18z" fill="#F3C7C6"/>
<path transform="translate(495,1229)" d="m0 0h9v20l4 1h-13l4-1-1-18z" fill="#F3C7C6"/>
<path transform="translate(635,380)" d="m0 0v3l-11 18-9 12-10 11h-6l-2-2 1-3 1 3h5l10-11 4-6 3-7 5-7 4-4z" fill="#27252D"/>
<path transform="translate(545,1228)" d="m0 0 2 1-5 6v13l3 2h-12l3-2v-17l-3-2h8 2z" fill="#F5D8D7"/>
<path transform="translate(1087,586)" d="m0 0 4 1 2 4v14l-1 6h-1l1-19h-2v-3l-5 5-5 7-5 4-3 3-1-2 8-11z" fill="#B34270"/>
<path transform="translate(433,280)" d="m0 0 2 1-10 8-17 17-6 7-3 7-5 6-5 5-2 1 2-5 5-7h2l2-5 12-14 17-17z" fill="#A63377"/>
<path transform="translate(331,754)" d="m0 0 6 4 10 8 2 1v2h2v2l10 2 3 7 1 2-5-2-8-5-5-6-8-6-8-7z" fill="#EA8056"/>
<path transform="translate(324,633)" d="m0 0 1 4-2 4-3 4-8 16-6 3 2-6 6-9 5-8 4-7z" fill="#EC8953"/>
<path transform="translate(1086,585)" d="m0 0h5l3 5v18l-2 3v-20l-2-4-4 1-11 13-7 11-4 6-1-2 3-6 4-5 4-6 7-9z" fill="#27252D"/>
<path transform="translate(1072,322)" d="m0 0 6 4 1 2-1 9-7 15-3 6h-1v-7l3-1v-5h2l1-7 2-3v-9h-2z" fill="#C35368"/>
<path transform="translate(356,581)" d="m0 0h5l2 3 2 11 6 14 5 9-1 2-7-12-6-15-2-9-6 1-8 10-3 2 2-4 8-10z" fill="#27252D"/>
<path transform="translate(952,412)" d="m0 0 12 2 2 1v2l10 3 16 8 15 10v2l-4-2-14-9-19-9-13-5-5-1z" fill="#AA3375"/>
<path transform="translate(865,1229)" d="m0 0 5 1 2 2v6l-1 1h-10v-5z" fill="#261824"/>
<path transform="translate(803,1229)" d="m0 0 5 1 2 2v6l-1 1h-10v-5z" fill="#261824"/>
<path transform="translate(609,1229)" d="m0 0 5 1 2 2v6l-1 1h-10v-5z" fill="#261824"/>
<path transform="translate(260,485)" d="m0 0 4 2 1 5-8 6-5-2 1-4 5-5z" fill="#A424E4"/>
<path transform="translate(760,118)" d="m0 0 4 1 5 5 5 6 5 5 5 4 2 4h-3l-15-15-5-4z" fill="#973595"/>
<path transform="translate(661,1229)" d="m0 0 4 1-3 3v13l1 3 6 1v1l-8-1-5-7v-7l4-6z" fill="#F4DEDF"/>
<path transform="translate(515,1229)" d="m0 0 4 1-3 3v13l1 3 6 1v1l-8-1-5-7v-7l4-6z" fill="#F4DEDF"/>
<path transform="translate(512,698)" d="m0 0h14l5 2-1 2-8 1v2l-4 1v-2l-7-3z" fill="#F0617D"/>
<path transform="translate(1028,422)" d="m0 0v3l-7 10-7 7-4 1-3-3 6-2 5-8 7-5z" fill="#C85866"/>
<path transform="translate(435,1229)" d="m0 0 5 1 2 2v6l-1 1h-10l2-8z" fill="#1D1520"/>
<path transform="translate(563,471)" d="m0 0 9 3 12 5v3l5 2-2 1-11-5-9-3-4-3z" fill="#C44377"/>
<path transform="translate(438,278)" d="m0 0 2 1-7 6-11 9-13 13-7 9-1-3 15-16 12-12z" fill="#D8446E"/>
<path transform="translate(491,691)" d="m0 0 11 1 9 2 18 2-3 2-19-1-16-5z" fill="#D44470"/>
<path transform="translate(854,412)" d="m0 0h6l-3 2-19 7-17 8 1-3 12-7 10-3 6-3z" fill="#D6446F"/>
<path transform="translate(1007,1238)" d="m0 0h1v7l-5 5-4-1v-7l3-3z" fill="#1F1521"/>
<path transform="translate(926,1238)" d="m0 0h1v7l-5 5-4-1v-7l3-3z" fill="#1F1521"/>
<path transform="translate(762,1238)" d="m0 0h1v7l-5 5-4-1v-7l3-3z" fill="#1F1521"/>
<path transform="translate(463,1238)" d="m0 0h1v7l-5 5-4-1v-7l3-3z" fill="#1F1521"/>
<path transform="translate(846,202)" d="m0 0 7 6 13 13-1 3-7-6-1-2-5-3-2-4-4-2-2-4z" fill="#8240C5"/>
<path transform="translate(586,177)" d="m0 0v3l-10 9-13 13-4 3-2-1 24-24z" fill="#9238A2"/>
<path transform="translate(336,611)" d="m0 0v3l-8 13-6 10-5 9-4 6-1-4 6-8 3-6 4-6 4-8z" fill="#D9446D"/>
<path transform="translate(1e3 1237)" d="m0 0 3 1v1l-6 2-1 1-1 7 9-1-3 3h-8l-3-3v-5l5-4z" fill="#F4CFCE"/>
<path transform="translate(923,1237)" d="m0 0 3 1v1l-6 2-1 1-1 7 9-1-3 3h-8l-3-3v-5l5-4z" fill="#F4CFCE"/>
<path transform="translate(759,1237)" d="m0 0 3 1v1l-6 2-1 1-1 7 9-1-3 3h-8l-3-3v-5l5-4z" fill="#F4CFCE"/>
<path transform="translate(460,1237)" d="m0 0 3 1v1l-6 2-1 1-1 7 9-1-3 3h-8l-3-3v-5l5-4z" fill="#F4CFCE"/>
<path transform="translate(897,403)" d="m0 0 28 1 14 2 5 2v1h-7l-12-2-2-1-25-1z" fill="#EA7B58"/>
<path transform="translate(626,135)" d="m0 0 4 1-13 13-8 6-2-1z" fill="#953698"/>
<path transform="translate(630,268)" d="m0 0 5 2 9 6 4 4v2l-5-1-9-7-3-3z" fill="#D46860"/>
<path transform="translate(931,801)" d="m0 0h9v4l-2 1-10 1h-17v-1l16-1z" fill="#AE3B89"/>
<path transform="translate(621,501)" d="m0 0 5 2 14 12 8 8-1 2-12-12-5-3v-2l-6-1-3-2z" fill="#AB3678"/>
<path transform="translate(820,374)" d="m0 0 1 4-6 11-5 3h-2l2-4 8-12z" fill="#C54175"/>
<path transform="translate(319,635)" d="m0 0 1 2-4 8-3 3-3 9-5 8h-2l2-7 4-6 3-6 5-7z" fill="#A63481"/>
<path transform="translate(534,225)" d="m0 0 2 1-2 5-11 11h-4l2-4 5-5 5-4z" fill="#833FC2"/>
<path transform="translate(944,803)" d="m0 0 4 1-13 5h-15l-8 1v-3l26-2z" fill="#A23184"/>
<path transform="translate(548,798)" d="m0 0h8l-3 3-8 4-6 1v-3h2l1-3z" fill="#E66461"/>
<path transform="translate(1090,611)" d="m0 0h1v9l-5 14-1 5h-1v-10l1-3h2l1-12h2z" fill="#C45468"/>
<path transform="translate(650,350)" d="m0 0 1 3-8 14-7 11-1-2 6-10 2-7h2l1-5z" fill="#B5476E"/>
<path transform="translate(518,242)" d="m0 0 2 1-4 5-2 2-22 2-1 3-5 1 5-5 3-2h12l6-2z" fill="#A93588"/>
<path transform="translate(949,796)" d="m0 0m-4 1 7 1-2 4-10 3v-5z" fill="#C3467B"/>
<path transform="translate(521,590)" d="m0 0 12 5 20 12-2 1-19-10-11-6z" fill="#D9537B"/>
<path transform="translate(584,480)" d="m0 0 6 2 14 7v3l-9-3-11-7z" fill="#BD3F77"/>
<path transform="translate(347,403)" d="m0 0 1 4-4 5-2 9-4 6h-3l2-6 4-5 2-9 4-2z" fill="#A73489"/>
<path transform="translate(348,396)" d="m0 0 1 4-2 5-3 2-1 4h-2v-3h-3l2-5 5-1 1-4z" fill="#A225E3"/>
<path transform="translate(665,316)" d="m0 0h1v6l-7 15-2-4 5-13z" fill="#D06661"/>
<path transform="translate(387,1216)" d="m0 0 10 1v2l3-3h2v13h-2l-4-9-9-3z" fill="#F6DEDE"/>
<path transform="translate(1019,751)" d="m0 0v3l-8 9-7 8-6 6-2-1 12-12 2-5z" fill="#A73276"/>
<path transform="translate(358,383)" d="m0 0h3l-1 4-4 10-6 5v-3h2l3-9z" fill="#D14E7B"/>
<path transform="translate(635,380)" d="m0 0v3l-10 16-6 4 2-5 5-7 4-4z" fill="#4E2846"/>
<path transform="translate(1081,593)" d="m0 0 4 1-5 7-5 4-3 3-1-2 8-11z" fill="#C85468"/>
<path transform="translate(625,507)" d="m0 0 5 1 3 3 8 7 2 4-3-1-5-5h-4l-1 2-2-2 2-1-1-4-4-2z" fill="#D85078"/>
<path transform="translate(698,78)" d="m0 0 7 6 15 15-1 2-8-7-12-13z" fill="#94338D"/>
<path transform="translate(990,773)" d="m0 0v3l-10 8-6 4-3 3-6 1 2-3 9-5 13-10z" fill="#BF447C"/>
<path transform="translate(1066,358)" d="m0 0 1 2-6 11-4 4-5 10-2-3 8-13 3-3z" fill="#CE5D64"/>
<path transform="translate(392,326)" d="m0 0v3l-7 11-3 5h-3l2-6 5-7 5-5z" fill="#C13D73"/>
<path transform="translate(934,292)" d="m0 0 3 2h-2v2l-17 5-6 1 3-2 3-3 9-2z" fill="#A53383"/>
<path transform="translate(682,60)" d="m0 0v3l-4 1-2 5-8 5-3 3-2-1 13-13z" fill="#973698"/>
<path transform="translate(532,803)" d="m0 0h7l1 2-1 2h-3l-2-2-15 2h-14v-1z" fill="#E97A58"/>
<path transform="translate(390,795)" d="m0 0 10 1v2h8v2h6l1 2h-8l-17-6z" fill="#C2426E"/>
<path transform="translate(992,777)" d="m0 0 4 1-14 11-6 2 1-3 5-1 2-4 5-2v-2z" fill="#B83973"/>
<path transform="translate(750,749)" d="m0 0 5 2 9 11 7 6-3 1-17-17z" fill="#D84B74"/>
<path transform="translate(1042,398)" d="m0 0 1 3-4 8h-3v6l-6 7-1-2 6-12 4-5z" fill="#CB4F6B"/>
<path transform="translate(869,1229)" d="m0 0 4 1 3 4v6h-14v-1l9-1v-6z" fill="#F8F0EF"/>
<path transform="translate(807,1229)" d="m0 0 4 1 3 4v6h-14v-1l9-1v-6z" fill="#F8F0EF"/>
<path transform="translate(613,1229)" d="m0 0 4 1 3 4v6h-14v-1l9-1v-6z" fill="#F8F0EF"/>
<path transform="translate(439,1229)" d="m0 0 4 1 3 4v6h-14v-1l9-1v-6z" fill="#F8F0EF"/>
<path transform="translate(820,640)" d="m0 0 7 6 10 9-4 2-6-5-1-4-6-6z" fill="#B33A77"/>
<path transform="translate(1069,663)" d="m0 0 1 2-4 6-4 11-2 3h-2v-5l3-1v-2h2l1-9 4-2z" fill="#EE9350"/>
<path transform="translate(309,662)" d="m0 0 1 2-6 13-4 2 3-9 4-7z" fill="#EB8554"/>
<path transform="translate(1088,589)" d="m0 0h2v3h2v11l-2 11h-1v-23l-2-1z" fill="#EA8255"/>
<path transform="translate(725,574)" d="m0 0h4v6l-3 6-3-2 1-8z" fill="#A63389"/>
<path transform="translate(427,428)" d="m0 0 1 3-9 9-1 2-6 2 2-4 5-2 2-5z" fill="#BF447C"/>
<path transform="translate(1072,322)" d="m0 0 6 4 1 2-1 9-3 1-1 2v-3l1-2v-9h-2z" fill="#C75A66"/>
<path transform="translate(829,187)" d="m0 0 5 2 5 5 4 5 3 2-1 3-6-5-5-5-2-4h-2z" fill="#99348F"/>
<path transform="translate(636,1243)" d="m0 0 3 1 1 4 7 1 2-1 2-4 1 5-2 2h-8l-3-1h-3z" fill="#EBA7A8"/>
<path transform="translate(1025,685)" d="m0 0 2 1-4 5-2 8-6 10-1-3 5-8 1-6 4-6z" fill="#CD4676"/>
<path transform="translate(517,248)" d="m0 0 2 1-5 3-14 1-8 1v-2l2-1 20-2z" fill="#C0457E"/>
<path transform="translate(520,241)" d="m0 0h2l-2 6h13l-2 2h-15v-3z" fill="#9B2F7B"/>
<path transform="translate(750,751)" d="m0 0 6 4 7 8 8 7 1 3-4-2-18-18z" fill="#AA377A"/>
<path transform="translate(300,683)" d="m0 0 1 3-1 9v12h-1l-2-8v-10z" fill="#F1A548"/>
<path transform="translate(985,420)" d="m0 0h5l5 7-10-2-2-1v-3z" fill="#F1AA46"/>
<path transform="translate(1041,663)" d="m0 0 1 2-10 19-4 2 8-15z" fill="#E97958"/>
<path transform="translate(952,412)" d="m0 0 12 2 2 1v2l10 3 3 3-9-3-13-5-5-1z" fill="#A33277"/>
<path transform="translate(737,1229)" d="m0 0h9l-1 2h-2l-3 11h-3l2-11z" fill="#F4D0CF"/>
<path transform="translate(640,1228)" d="m0 0h7l5 1v7h-2l-3-5-5-1-2 5-3-2 2-4z" fill="#EFB7B7"/>
<path transform="translate(595,144)" d="m0 0h2l-2 4-8 9-4 2v-3l3-1 2-4z" fill="#94369B"/>
<path transform="translate(670,71)" d="m0 0v3l-6 7-5 3-4 5-2-1 3-4 5-5z" fill="#A13185"/>
<path transform="translate(1044,1216)" d="m0 0 5 1 1 5-5 5h-2v-2l3-2 1-3-4-1z" fill="#F1C6C7"/>
<path transform="translate(433,433)" d="m0 0 4 1-8 11h-1v-6z" fill="#B03D89"/>
<path transform="translate(878,318)" d="m0 0 2 1-5 4-5 5-6 3h-3l7-6z" fill="#AF3676"/>
<path transform="translate(467,262)" d="m0 0 2 1-5 3-12 6-5 2 1-3z" fill="#D6446F"/>
<path transform="translate(741,1268)" d="m0 0h3l-2 4-5 5-3 1 1-5z" fill="#27252D"/>
<path transform="translate(899,1228)" d="m0 0h8l3 3-1 5h-4l-1-6-5-1z" fill="#EFC4C7"/>
<path transform="translate(482,1228)" d="m0 0h8l3 3-1 5h-4l-1-6-5-1z" fill="#EFC4C7"/>
<path transform="translate(1069,667)" d="m0 0 1 2-3 5-1 7-5 5 2-8 3-8z" fill="#D05367"/>
<path transform="translate(396,646)" d="m0 0 7 3 9 7 1 3-4-1-1-2-4-2v-2l-4-1-4-3z" fill="#C5456D"/>
<path transform="translate(541,463)" d="m0 0 9 2 13 5-3 2h-3v-2l-3 1v-3l-10-2-3-1z" fill="#A9377A"/>
<path transform="translate(425,366)" d="m0 0h7l-4 2-17 5h-2l1-3z" fill="#D14472"/>
<path transform="translate(444,362)" d="m0 0h10v1l-18 3h-7l6-3z" fill="#D8446D"/>
<path transform="translate(809,625)" d="m0 0 4 4 6 8v3l-4-3-6-7-1-2z" fill="#AD397A"/>
<path transform="translate(369,1216)" d="m0 0h2l-1 3h-2l-1 4h4l-1 4-5-1v-6z" fill="#F5D6D5"/>
<path transform="translate(849,1208)" d="m0 0h3l-2 5-3 1v2h-5l3-5z" fill="#27252D"/>
<path transform="translate(816,797)" d="m0 0 11 1 9 3v2l-9-1-11-4z" fill="#AB387A"/>
<path transform="translate(313,651)" d="m0 0 1 2-1 7-6 4-1-2 6-10z" fill="#E46D60"/>
<path transform="translate(1084,596)" d="m0 0 1 2-4 6-6 4v-4z" fill="#EF9E4A"/>
<path transform="translate(800,402)" d="m0 0v3l-5 10-7 7 2-6 7-10z" fill="#A43479"/>
<path transform="translate(632,378)" d="m0 0h3l-2 6-5 7h-1v-5z" fill="#C65966"/>
<path transform="translate(547,214)" d="m0 0 2 1-12 13-3 1 2-4z" fill="#963698"/>
<path transform="translate(551,188)" d="m0 0h2v2h-2l-2 4-3 1-2 4-3 3-3-1z" fill="#9138A4"/>
<path transform="translate(607,132)" d="m0 0h2l-2 5-5 4-3 4-3-1 6-7z" fill="#973596"/>
<path transform="translate(1053,1216)" d="m0 0h5l1 5-3 5-4 1 5-7h-4z" fill="#F5D5D4"/>
<path transform="translate(360,587)" d="m0 0h2l2 9 4 9-1 3-3-6v-3h-2l-2-6z" fill="#AD3575"/>
<path transform="translate(655,84)" d="m0 0 2 1-3 3-2 4-9 6 2-4 5-5zm-13 14m-2 1 2 1-4 2z" fill="#91379D"/>
<path transform="translate(360,1216)" d="m0 0h2v2l-3 3-1 2 4 1-1 3-5-1v-6z" fill="#F6DCDC"/>
<path transform="translate(445,808)" d="m0 0h16l2 2-16 1-2-1z" fill="#D85964"/>
<path transform="translate(372,786)" d="m0 0 10 3 4 2v2l4 2-5-1-12-5z" fill="#BA3E70"/>
<path transform="translate(295,698)" d="m0 0 4 4 1 5v7l-3-4-2-6z" fill="#EB8255"/>
<path transform="translate(415,425)" d="m0 0 5 1 1 2-2 3h-5l-1-4z" fill="#BF447C"/>
<path transform="translate(517,363)" d="m0 0h6l7 3 8 3-3 1-18-5z" fill="#E9745A"/>
<path transform="translate(655,337)" d="m0 0h3l-2 6-4 7h-1v-6z" fill="#C65966"/>
<path transform="translate(499,240)" d="m0 0 2 4-5 4-2 2-3-2 5-5z" fill="#7A44D9"/>
<path transform="translate(750,109)" d="m0 0 7 3 4 6v2l-4-2-5-5z" fill="#9A3594"/>
<path transform="translate(793,1239)" d="m0 0h2l1 6-3-1v2l-5 2 1-5z" fill="#2F2730"/>
<path transform="translate(793,787)" d="m0 0h6l7 3 2 4-9-3-6-3z" fill="#B93D77"/>
<path transform="translate(1e3 761)" d="m0 0v3l-5 7-5 3v-3l7-8z" fill="#CD4575"/>
<path transform="translate(778,157)" d="m0 0 7 6 6 7-4-1-9-9z" fill="#923699"/>
<path transform="translate(346,596)" d="m0 0 1 2-3 6-2 1-3 6h-2l2-6z" fill="#E25963"/>
<path transform="translate(869,677)" d="m0 0 12 4v3l-5-1-8-4z" fill="#D14B78"/>
<path transform="translate(1031,414)" d="m0 0 1 2-4 7h-2l-2 4-3 1 2-4z" fill="#EB8654"/>
<path transform="translate(1015,296)" d="m0 0 9 2 6 2-1 2-7-1-7-3z" fill="#EA8155"/>
<path transform="translate(356,778)" d="m0 0 6 2 4 2v2l6 2 1 2-6-2-10-5z" fill="#B63873"/>
<path transform="translate(344,770)" d="m0 0 5 2 7 5 1 3-5-2-7-5z" fill="#BE3971"/>
<path transform="translate(300,714)" d="m0 0 3 4 4 7v3h2v2l-3-1-5-8z" fill="#E97759"/>
<path transform="translate(832,362)" d="m0 0v3l-8 10-3 3-1-2 9-11z" fill="#D9466F"/>
<path transform="translate(622,266)" d="m0 0 5 1 4 2 1 3-10-2z" fill="#EA8156"/>
<path transform="translate(500,252)" d="m0 0 4 1-12 5-4-1 3-3z" fill="#DD557B"/>
<path transform="translate(814,171)" d="m0 0 7 6 6 5 3 5-4-2-12-12z" fill="#8D3AA9"/>
<path transform="translate(999,1228)" d="m0 0 3 1-2 1v6l-5-1 1-4z" fill="#F0C3C5"/>
<path transform="translate(918,1228)" d="m0 0 3 1-2 1v6l-5-1 1-4z" fill="#F0C3C5"/>
<path transform="translate(754,1228)" d="m0 0 3 1-2 1v6l-5-1 1-4z" fill="#F0C3C5"/>
<path transform="translate(975,789)" d="m0 0 2 1-8 5h-5l1-3z" fill="#D74A74"/>
<path transform="translate(413,659)" d="m0 0 5 2 10 6-2 1-9-4v-2l-4-1z" fill="#E25664"/>
<path transform="translate(357,584)" d="m0 0 3 1v3l-4 1-4 4-2-1 5-7z" fill="#E46061"/>
<path transform="translate(339,438)" d="m0 0h2l-1 7-2 7h-1v-11z" fill="#A93689"/>
<path transform="translate(970,415)" d="m0 0 10 5v2l-9-3-5-2z" fill="#E8755A"/>
<path transform="translate(788,1228)" d="m0 0 4 1 1 5-4 1-2-6z" fill="#F5DBDB"/>
<path transform="translate(420,1228)" d="m0 0 4 1 1 5-4 1-2-6z" fill="#F5DBDB"/>
<path transform="translate(1027,687)" d="m0 0 1 4-4 4-4 8h-3l4-6 3-6z" fill="#E5655F"/>
<path transform="translate(820,374)" d="m0 0 1 4-3 5-5 2 2-5z" fill="#B53975"/>
<path transform="translate(829,370)" d="m0 0 3 3-2 4-3 3-2-1z" fill="#DE446B"/>
<path transform="translate(641,363)" d="m0 0 1 3-7 12-3-1 4-5 3-7z" fill="#EB8654"/>
<path transform="translate(490,249)" d="m0 0 3 1-7 6-5 2-4-1 9-4z" fill="#9A2F7C"/>
<path transform="translate(855,213)" d="m0 0 4 1 7 7-1 3-7-6z" fill="#973594"/>
<path transform="translate(611,152)" d="m0 0v3l-10 9-2-2 7-7z" fill="#8D3BAE"/>
<path transform="translate(725,84)" d="m0 0 8 4 3 5v2l-4-2-5-5z" fill="#9E338C"/>
<path transform="translate(324,633)" d="m0 0 1 4-2 4-3 4h-2l2-7z" fill="#EB8255"/>
<path transform="translate(336,611)" d="m0 0v3l-8 13h-2l2-5 7-10z" fill="#D5446F"/>
<path transform="translate(351,393)" d="m0 0m-2 1 5 1-2 4h-2l-1 8h-1z" fill="#AF3A85"/>
<path transform="translate(1057,312)" d="m0 0 5 2 7 5-2 1-7-3-3-2z" fill="#C45568"/>
<path transform="translate(528,458)" d="m0 0 6 1 7 3-3 1-7-1-3-3z" fill="#AB387A"/>
<path transform="translate(340,425)" d="m0 0h2v7l-3 2-1-1v-6z" fill="#DD456C"/>
<path transform="translate(854,412)" d="m0 0h6l-3 2-12 4 2-4z" fill="#D44470"/>
<path transform="translate(925,406)" d="m0 0h14l5 2v1h-7l-12-2z" fill="#E25664"/>
<path transform="translate(415,395)" d="m0 0 7 6 5 5-6-2-3-2v-3l-3-1z" fill="#BF447C"/>
<path transform="translate(920,299)" d="m0 0 3 1-6 3-8 3-3-1h2v-2l10-3z" fill="#CB4072"/>
<path transform="translate(616,265)" d="m0 0 7 3-2 3-6-2z" fill="#F0A448"/>
<path transform="translate(524,218)" d="m0 0v3l-11 11-2-1 12-12z" fill="#863BE0"/>
<path transform="translate(609,496)" d="m0 0h5l1 3 6 2v3l-9-5z" fill="#D64A74"/>
<path transform="translate(1050,383)" d="m0 0 1 2-4 8-5 5 2-5z" fill="#EC8A52"/>
<path transform="translate(842,350)" d="m0 0h2v2l-5 5-4 2-1 3-2-1 9-10z" fill="#D14471"/>
<path transform="translate(534,225)" d="m0 0 2 1-2 5-4 3-4-1 5-4z" fill="#7E42D0"/>
<path transform="translate(563,178)" d="m0 0v3l-9 8-2-2 6-6z" fill="#98369A"/>
<path transform="translate(632,107)" d="m0 0h2l-1 4-5 4-3-1z" fill="#95379C"/>
<path transform="translate(685,54)" d="m0 0 4 1-5 5-4 1 3-5zm-7 7 2 1z" fill="#983595"/>
<path transform="translate(769,769)" d="m0 0 4 1 6 5v1h-5l-3-4v-2z" fill="#CA4475"/>
<path transform="translate(857,670)" d="m0 0 5 1 5 4 2 1v2l-5-1-2-1-1-3z" fill="#C04077"/>
<path transform="translate(798,445)" d="m0 0 2 1-8 7-2 2-1-4 8-5z" fill="#AA377A"/>
<path transform="translate(800,445)" d="m0 0 2 1-12 12 1-5z" fill="#211F27"/>
<path transform="translate(445,273)" d="m0 0h2v2l-5 3-7 2 5-5z" fill="#B93A75"/>
<path transform="translate(777,135)" d="m0 0 5 2 4 6h-3l-6-6z" fill="#94379B"/>
<path transform="translate(401,1240)" d="m0 0h2l-2 7-5 4h-3v-2l5-3 2-2z" fill="#EDB1B3"/>
<path transform="translate(454,1229)" d="m0 0 2 1v6l-5-1 1-4z" fill="#F5DCDB"/>
<path transform="translate(306,670)" d="m0 0h1v7l-5 6-1-3z" fill="#F1A548"/>
<path transform="translate(631,511)" d="m0 0 5 2 7 7v2l-3-1-4-5z" fill="#D04472"/>
<path transform="translate(933,297)" d="m0 0 2 1-3 3-9 1 3-3z" fill="#F0617D"/>
<path transform="translate(630,268)" d="m0 0 5 2 6 4-2 1-7-2z" fill="#B8456E"/>
</svg>
